<svg xmlns="http://www.w3.org/2000/svg" viewBox="0 0 311 188" width="622" height="376">
  <g fill="none" stroke-miterlimit="10" stroke="#00c8ff" stroke-linecap="round" stroke-linejoin="round">
    <path d="M10 68.7s7.2-10.8 8.2-22.8c.7-8.2 3-3.6 4-.3.2.6 1 .6 1.2 0 1-2.7 1-8 2.7-2.6 1.7 4.1 2.9 4 3.6 3.9.4 0 1.2 1.6 1.2 2l-.4 3.9 1.8 1.9.6 9.2s4.6-11.2 7.3-11.4-.5 5.7 1.8 6.3c3.8-4 5.2 1.5 6.2.6C56.8 24.8 58.7 38 59.8 39.1s.7-1 2.7-.1.2 6.3 1.5 7c1.3.6 4.1-3.6 4.4-1.8.4 2.8 0 101.8 0 101.8l2.6 3c5.6-12.3 5.3 2 5.3 4 4.4-.1 3.6 7.1 3.6 7.1 4.5-6.6 6 6.8 6 6.8s4.3-9.7 7.1-10.8c1.2-14.5 4-4 4-4 3.7-14.5 5.6-3.3 5.6-3.3s4.7 4.1 5.4 11.3l1-4 4-4 1 5 4.1 5.4c3.2-5.8 4.9-1.4 4.9-1.4l7-3V58c5.9-17.5 8.6-3.6 8.6-3.6 5.9-11.9 7 1.2 7 1.2l1.3 5.1 3.8-.5 5.9-5.3 2.4 3.7c8-18 9.6-3.1 9.6-3.1 3.7-12.7 7.4-5.6 7.4-5.6 1.9-8 4-7 4-7 3.7-9.4 5.8 2.8 5.8 2.8l1.7-2.1c3.1-9.2 4.3 1.4 4.3 1.4l1.7 7.7c6-7.2 7.7.4 7.7.4 2.3.3 3.6 7.3 4.2 10.6.1.5 1.2.5 1.4 0L209 55l8-12 4.4 6.1 2.2-3.6c3.5-15 7.6-.4 7.6-.4l1.6 2.6c2.7-7.3 5.2 1.2 5.2 1.2l2 7c2.4 0 3.1 8 7 8"/>
  </g>
  <g data-name="Arrow bodies" fill="none" stroke="#000" stroke-miterlimit="10">
    <path d="M10 181V22.2"/>
    <path d="M10 109.7h268.8"/>
  </g>
  <g data-name="Arrow tips">
    <path d="M10 23.9l-3.6 2.2-.1-.1 2.3-5.9L10 14l1.4 6.1 2.3 5.9-.1.1-3.6-2.2z"/>
    <path d="M277.1 109.7l-2.2-3.6.1-.1 5.9 2.3 6.1 1.4-6.1 1.4-5.9 2.3-.1-.1 2.2-3.6z"/>
  </g>
  <g data-name="Text" font-family="DejaVu Sans, sans-serif" font-size="14px">
    <text x="35" y="25">1</text>
    <text x="95" y="25">0</text>
    <text x="155" y="25">1</text>
    <text x="215" y="25">1</text>
    <text x="295" y="115" style="font-style:italic">t</text>
  </g>
</svg>